@startuml
state "Запрос на авторизацию" as State1
state "Проверка данных" as State2
state "Ошибка авторизации" as State3
state "Выполнение авторизации" as State4
state "Страница зарегистрированного пользователя" as State5
[*] -right-> State1
State1 -right->State2 :Провести проверку
State2 -down-> State3 :Неверные данные
State2 -right-> State4 :Данные верны
State3 --> State1 :Сделать новый запрос
State4 -right-> State5
State5 -right-> [*]
@enduml
