@startuml
state "Запрос на обновление информации" as State1
state "Проверка данных" as State2
state "Ошибка обновления информации" as State3
state "Выполнение обновления информации" as State4
state "Страница личного кабинета" as State5
[*] -right-> State1
State1 -right->State2 :Провести проверку
State2 -down-> State3 :Пользователь с такими данными существует
State2 -right-> State4 :Данные корректны
State3 --> State1 :Сделать новый запрос
State4 -right-> State5
State5 -right-> [*]
@enduml